<svg width="100" height="100" viewBox="0 0 100 100" fill="none" xmlns="http://www.w3.org/2000/svg">
<path d="M90.833 25.4167L51.2497 2.5C50.833 2.08333 49.9997 2.08333 49.1663 2.5L9.16634 25.4167C8.74967 25.8333 8.33301 26.25 8.33301 27.0833V70.4167C8.33301 74.1667 11.2497 77.0833 14.9997 77.0833C18.7497 77.0833 21.6663 74.1667 21.6663 70.4167V33.3333L49.9997 16.6667L78.7497 33.3333V70.4167C78.7497 74.1667 81.6663 77.0833 85.4163 77.0833C89.1663 77.0833 92.083 74.1667 92.083 70.4167V27.0833C91.6663 26.25 91.2497 25.8333 90.833 25.4167Z" fill="#235DFF"/>
<path d="M70.4163 38.75L61.6663 33.3334C61.2497 32.9167 60.4163 32.9167 59.583 33.3334C58.7497 33.75 58.333 34.5834 58.333 35V78.3334L49.9997 83.3334L41.6663 78.3334V35C41.6663 34.5834 41.2497 33.75 40.4163 33.3334C39.9997 32.9167 39.1663 32.9167 38.333 33.3334L29.583 38.75C28.7497 38.75 28.333 39.5834 28.333 40.4167V84.5834C28.333 85.4167 28.7497 85.8334 29.1663 86.25L48.7497 97.5C49.1663 97.5 49.583 97.9167 49.583 97.9167C49.583 97.9167 50.4163 97.9167 50.4163 97.5L69.9997 86.25C70.4163 85.8334 70.833 85.4167 70.833 84.5834V40.4167C71.6663 39.5834 71.2497 38.75 70.4163 38.75Z" fill="#235DFF"/>
</svg>
