<svg width="17" height="20" viewBox="0 0 17 20" fill="none" xmlns="http://www.w3.org/2000/svg">
<path d="M11.4402 3.19C11.8182 2.75428 12.1065 2.24817 12.2884 1.70074C12.4703 1.1533 12.5422 0.575328 12.5002 0C11.3395 0.093687 10.2622 0.639556 9.50016 1.52C9.13525 1.94198 8.85873 2.43288 8.68696 2.96364C8.5152 3.49441 8.45167 4.05424 8.50016 4.61C9.0663 4.61472 9.62594 4.4891 10.1358 4.24286C10.6456 3.99662 11.0919 3.63637 11.4402 3.19ZM13.9602 10.63C13.9669 9.86374 14.1687 9.11182 14.5466 8.4452C14.9245 7.77859 15.4661 7.21926 16.1202 6.82C15.7074 6.22524 15.1617 5.73483 14.5264 5.38767C13.8911 5.04052 13.1836 4.84615 12.4602 4.82C10.9002 4.66 9.46016 5.73 8.63016 5.73C7.80016 5.73 6.63016 4.84 5.33016 4.86C4.48028 4.888 3.65218 5.13578 2.9266 5.57919C2.20103 6.02259 1.60276 6.64648 1.19016 7.39C-0.569844 10.45 0.740156 15 2.50016 17.47C3.30016 18.68 4.30016 20.05 5.62016 20C6.94016 19.95 7.37016 19.18 8.90016 19.18C10.4302 19.18 10.9002 20 12.2002 19.97C13.5002 19.94 14.4202 18.73 15.2602 17.52C15.8552 16.6415 16.32 15.6816 16.6402 14.67C15.8476 14.332 15.1715 13.7693 14.6952 13.0513C14.2189 12.3333 13.9634 11.4916 13.9602 10.63Z" fill="black"/>
</svg>
