<svg width="25" height="25" viewBox="0 0 25 25" fill="none" xmlns="http://www.w3.org/2000/svg">
<path d="M22.1799 17.2933L19.0499 9.98332C17.9899 7.50332 16.0399 7.40332 14.7299 9.76332L12.8399 13.1733C11.8799 14.9033 10.0899 15.0533 8.84993 13.5033L8.62993 13.2233C7.33993 11.6033 5.51993 11.8033 4.58993 13.6533L2.86993 17.1033C1.65993 19.5033 3.40993 22.3333 6.08993 22.3333H18.8499C21.4499 22.3333 23.1999 19.6833 22.1799 17.2933Z" stroke="#21283C" stroke-width="1.5" stroke-linecap="round" stroke-linejoin="round"/>
<path d="M7.46997 8.33331C9.12682 8.33331 10.47 6.99017 10.47 5.33331C10.47 3.67646 9.12682 2.33331 7.46997 2.33331C5.81312 2.33331 4.46997 3.67646 4.46997 5.33331C4.46997 6.99017 5.81312 8.33331 7.46997 8.33331Z" stroke="#21283C" stroke-width="1.5" stroke-linecap="round" stroke-linejoin="round"/>
</svg>
