<svg width="24" height="25" viewBox="0 0 24 25" fill="none" xmlns="http://www.w3.org/2000/svg">
<path d="M16 13.4204V17.6204C16 21.1204 14.6 22.5204 11.1 22.5204H6.9C3.4 22.5204 2 21.1204 2 17.6204V13.4204C2 9.92039 3.4 8.52039 6.9 8.52039H11.1C14.6 8.52039 16 9.92039 16 13.4204Z" stroke="#235DFF" stroke-width="1.5" stroke-linecap="round" stroke-linejoin="round"/>
<path d="M22 7.42039V11.6204C22 15.1204 20.6 16.5204 17.1 16.5204H16V13.4204C16 9.92039 14.6 8.52039 11.1 8.52039H8V7.42039C8 3.92039 9.4 2.52039 12.9 2.52039H17.1C20.6 2.52039 22 3.92039 22 7.42039Z" stroke="#235DFF" stroke-width="1.5" stroke-linecap="round" stroke-linejoin="round"/>
</svg>
