<svg width="35" height="40" viewBox="0 0 35 40" fill="none" xmlns="http://www.w3.org/2000/svg">
<path fill-rule="evenodd" clip-rule="evenodd" d="M21.9551 -0.000976562C22.0411 -0.000976562 22.1255 0.00628507 22.2076 0.0202287L22.4779 0.0218234C22.8859 0.0218234 23.2759 0.187823 23.5599 0.481823L33.6919 11.0358C33.9579 11.3138 34.1081 11.6878 34.1081 12.0738V30.4538C34.1399 35.4718 30.2279 39.5498 25.2019 39.7298H8.92186C4.0414 39.6249 0.127267 35.6811 0.00659071 30.8503L0.00585938 8.97982C0.123859 4.01782 4.21986 0.0218234 9.14386 0.0218234L21.7025 0.0202287C21.7846 0.00628507 21.869 -0.000976562 21.9551 -0.000976562ZM20.4539 3.02102L9.14986 3.02182C5.83586 3.02182 3.08386 5.70582 3.00586 9.01582V30.4538C2.93386 33.8558 5.61386 36.6558 8.98386 36.7298H25.1499C28.4879 36.6098 31.1299 33.8558 31.108 30.4638L31.1079 13.965L27.0911 13.967C23.4291 13.957 20.4551 10.973 20.4551 7.31702L20.4539 3.02102ZM16.2867 14.3168C16.7007 14.3168 17.0757 14.4848 17.3472 14.7563L17.3493 14.7576L22.0413 19.4696C22.6253 20.0576 22.6233 21.0056 22.0373 21.5896C21.4493 22.1736 20.4993 22.1736 19.9153 21.5856L17.7859 19.447L17.7867 27.8988C17.7867 28.7268 17.1147 29.3988 16.2867 29.3988C15.4587 29.3988 14.7867 28.7268 14.7867 27.8988L14.7859 19.447L12.6593 21.5856C12.3673 21.8816 11.9813 22.0276 11.5973 22.0276C11.2153 22.0276 10.8313 21.8816 10.5393 21.5896C9.95326 21.0056 9.94926 20.0576 10.5353 19.4696L15.2233 14.7576L15.2902 14.6959C15.3191 14.6702 15.349 14.6456 15.3799 14.6221L15.2233 14.7576C15.279 14.7016 15.3391 14.6512 15.4025 14.6063C15.6495 14.4242 15.9556 14.3168 16.2867 14.3168ZM23.4539 4.70302L23.4551 7.31702C23.4551 9.32502 25.0871 10.961 27.0951 10.967L29.4639 10.965L23.4539 4.70302Z" fill="#235DFF"/>
</svg>
