<svg width="25" height="24" viewBox="0 0 25 24" fill="none" xmlns="http://www.w3.org/2000/svg">
<path d="M22.0338 12.1871C22.0338 11.3677 21.9673 10.7698 21.8234 10.1497H12.4668V13.848H17.9589C17.8482 14.7671 17.2503 16.1512 15.9215 17.0813L15.9029 17.2051L18.8613 19.497L19.0663 19.5174C20.9486 17.779 22.0338 15.2211 22.0338 12.1871Z" fill="#4285F4"/>
<path d="M12.4671 21.9313C15.1578 21.9313 17.4167 21.0454 19.0666 19.5174L15.9219 17.0813C15.0803 17.6682 13.9509 18.0779 12.4671 18.0779C9.83178 18.0779 7.59506 16.3395 6.79774 13.9366L6.68087 13.9466L3.60468 16.3273L3.56445 16.4391C5.20323 19.6945 8.56941 21.9313 12.4671 21.9313Z" fill="#34A853"/>
<path d="M6.79724 13.9366C6.58685 13.3166 6.4651 12.6521 6.4651 11.9656C6.4651 11.2791 6.58685 10.6147 6.78617 9.99466L6.78059 9.8626L3.66586 7.44366L3.56395 7.49214C2.88853 8.84305 2.50098 10.3601 2.50098 11.9656C2.50098 13.5712 2.88853 15.0882 3.56395 16.4391L6.79724 13.9366Z" fill="#FBBC05"/>
<path d="M12.4671 5.85336C14.3384 5.85336 15.6007 6.66168 16.3205 7.33717L19.133 4.59107C17.4057 2.9855 15.1578 2 12.4671 2C8.56941 2 5.20323 4.23672 3.56445 7.49214L6.78667 9.99466C7.59506 7.59183 9.83178 5.85336 12.4671 5.85336Z" fill="#EB4335"/>
</svg>
