<svg width="24" height="25" viewBox="0 0 24 25" fill="none" xmlns="http://www.w3.org/2000/svg">
<path d="M6 10.2649V8.26489C6 4.95489 7 2.26489 12 2.26489C17 2.26489 18 4.95489 18 8.26489V10.2649" stroke="#21283C" stroke-width="1.5" stroke-linecap="round" stroke-linejoin="round"/>
<path d="M12 18.7649C13.3807 18.7649 14.5 17.6456 14.5 16.2649C14.5 14.8842 13.3807 13.7649 12 13.7649C10.6193 13.7649 9.5 14.8842 9.5 16.2649C9.5 17.6456 10.6193 18.7649 12 18.7649Z" stroke="#21283C" stroke-width="1.5" stroke-linecap="round" stroke-linejoin="round"/>
<path d="M17 22.2649H7C3 22.2649 2 21.2649 2 17.2649V15.2649C2 11.2649 3 10.2649 7 10.2649H17C21 10.2649 22 11.2649 22 15.2649V17.2649C22 21.2649 21 22.2649 17 22.2649Z" stroke="#21283C" stroke-width="1.5" stroke-linecap="round" stroke-linejoin="round"/>
</svg>
