<svg width="25" height="25" viewBox="0 0 25 25" fill="none" xmlns="http://www.w3.org/2000/svg">
<path d="M12.0999 19.3333C15.4099 19.3333 18.0999 16.6433 18.0999 13.3333V8.33331C18.0999 5.02331 15.4099 2.33331 12.0999 2.33331C8.78985 2.33331 6.09985 5.02331 6.09985 8.33331V13.3333C6.09985 16.6433 8.78985 19.3333 12.0999 19.3333Z" stroke="#21283C" stroke-width="1.5" stroke-linecap="round" stroke-linejoin="round"/>
<path d="M3.09985 11.3333V13.3333C3.09985 18.3033 7.12985 22.3333 12.0999 22.3333C17.0699 22.3333 21.0999 18.3033 21.0999 13.3333V11.3333" stroke="#21283C" stroke-width="1.5" stroke-linecap="round" stroke-linejoin="round"/>
<path d="M9.20996 7.81331C10.99 7.16331 12.93 7.16331 14.71 7.81331" stroke="#21283C" stroke-width="1.5" stroke-linecap="round" stroke-linejoin="round"/>
<path d="M10.1299 10.8133C11.3299 10.4833 12.5999 10.4833 13.7999 10.8133" stroke="#21283C" stroke-width="1.5" stroke-linecap="round" stroke-linejoin="round"/>
</svg>
