<svg width="16" height="16" viewBox="0 0 16 16" fill="none" xmlns="http://www.w3.org/2000/svg">
<path d="M3.33333 6.66663C2.6 6.66663 2 7.26663 2 7.99996C2 8.73329 2.6 9.33329 3.33333 9.33329C4.06667 9.33329 4.66667 8.73329 4.66667 7.99996C4.66667 7.26663 4.06667 6.66663 3.33333 6.66663Z" stroke="#5D6E7E" stroke-width="1.5"/>
<path d="M12.6668 6.66663C11.9335 6.66663 11.3335 7.26663 11.3335 7.99996C11.3335 8.73329 11.9335 9.33329 12.6668 9.33329C13.4002 9.33329 14.0002 8.73329 14.0002 7.99996C14.0002 7.26663 13.4002 6.66663 12.6668 6.66663Z" stroke="#5D6E7E" stroke-width="1.5"/>
<path d="M7.99984 6.66663C7.2665 6.66663 6.6665 7.26663 6.6665 7.99996C6.6665 8.73329 7.2665 9.33329 7.99984 9.33329C8.73317 9.33329 9.33317 8.73329 9.33317 7.99996C9.33317 7.26663 8.73317 6.66663 7.99984 6.66663Z" stroke="#5D6E7E" stroke-width="1.5"/>
</svg>
