<svg width="25" height="25" viewBox="0 0 25 25" fill="none" xmlns="http://www.w3.org/2000/svg">
<path d="M22.8999 15.3333V9.33331C22.8999 4.33331 20.8999 2.33331 15.8999 2.33331H9.8999C4.8999 2.33331 2.8999 4.33331 2.8999 9.33331V15.3333C2.8999 20.3333 4.8999 22.3333 9.8999 22.3333H15.8999C20.8999 22.3333 22.8999 20.3333 22.8999 15.3333Z" stroke="#21283C" stroke-width="1.5" stroke-linecap="round" stroke-linejoin="round"/>
<path d="M9.32001 17.4433C10.1871 17.4433 10.89 16.7404 10.89 15.8733C10.89 15.0062 10.1871 14.3033 9.32001 14.3033C8.45292 14.3033 7.75 15.0062 7.75 15.8733C7.75 16.7404 8.45292 17.4433 9.32001 17.4433Z" stroke="#21283C" stroke-width="1.5" stroke-linecap="round" stroke-linejoin="round"/>
<path d="M16.6499 14.8233V8.68328C16.6499 7.37328 15.8299 7.19333 14.9999 7.42333L11.8599 8.28332C11.2899 8.44332 10.8999 8.89333 10.8999 9.54333V10.6433V11.3833V15.8833" stroke="#21283C" stroke-width="1.5" stroke-linecap="round" stroke-linejoin="round"/>
<path d="M15.08 16.3933C15.9471 16.3933 16.65 15.6904 16.65 14.8233C16.65 13.9562 15.9471 13.2533 15.08 13.2533C14.2129 13.2533 13.51 13.9562 13.51 14.8233C13.51 15.6904 14.2129 16.3933 15.08 16.3933Z" stroke="#21283C" stroke-width="1.5" stroke-linecap="round" stroke-linejoin="round"/>
<path d="M10.8901 11.3733L16.6501 9.80328" stroke="#21283C" stroke-width="1.5" stroke-linecap="round" stroke-linejoin="round"/>
</svg>
