<svg width="56" height="57" viewBox="0 0 56 57" fill="none" xmlns="http://www.w3.org/2000/svg">
<rect x="0.5" y="0.764893" width="55" height="55" rx="27.5" fill="white"/>
<rect x="0.5" y="0.764893" width="55" height="55" rx="27.5" stroke="#E3E9EE"/>
<path d="M26.775 18.4525C27.2284 17.3135 28.7729 17.3135 29.2263 18.4525L31.2004 23.4112C31.3916 23.8913 31.8238 24.2194 32.32 24.261L37.4441 24.6902C38.6211 24.7887 39.0983 26.3233 38.2016 27.1258L34.2976 30.6196C33.9195 30.9579 33.7544 31.4888 33.8699 31.9947L35.0627 37.2186C35.3366 38.4185 34.0872 39.3669 33.0795 38.7239L28.6926 35.9245C28.2678 35.6534 27.7335 35.6534 27.3087 35.9245L22.9218 38.7239C21.9141 39.3669 20.6647 38.4185 20.9386 37.2186L22.1314 31.9947C22.2469 31.4888 22.0818 30.9579 21.7037 30.6196L17.7997 27.1258C16.903 26.3233 17.3802 24.7887 18.5572 24.6902L23.6813 24.261C24.1775 24.2194 24.6097 23.8913 24.8009 23.4112L26.775 18.4525Z" fill="url(#paint0_linear_1_1772)"/>
<defs>
<linearGradient id="paint0_linear_1_1772" x1="34.5004" y1="28.0952" x2="17.0004" y2="26.0952" gradientUnits="userSpaceOnUse">
<stop stop-color="#FBA11D"/>
<stop offset="1" stop-color="#FDAE3A"/>
</linearGradient>
</defs>
</svg>
