<svg width="50" height="50" viewBox="0 0 50 50" fill="none" xmlns="http://www.w3.org/2000/svg">
<path d="M43.7487 22.916C43.196 22.916 42.666 23.1356 42.2752 23.5264C41.8845 23.9172 41.6649 24.4472 41.6649 24.9999C41.6649 25.5526 41.8845 26.0826 42.2752 26.4735C42.666 26.8643 43.196 27.0839 43.7487 27.0839H47.9163C48.4689 27.0839 48.9989 26.8643 49.3897 26.4735C49.7805 26.0826 50 25.5526 50 24.9999C50 24.4472 49.7805 23.9172 49.3897 23.5264C48.9989 23.1356 48.4689 22.916 47.9163 22.916H43.7487ZM43.1166 30.2481C42.8639 30.1419 42.5929 30.0869 42.3188 30.0863C42.0448 30.0856 41.7734 30.1393 41.5204 30.2442C41.2673 30.3493 41.0374 30.5033 40.8444 30.6977C40.6513 30.8921 40.4986 31.123 40.3953 31.3767C40.2901 31.6295 40.2359 31.9005 40.2357 32.1742C40.2354 32.448 40.2894 32.7191 40.3942 32.9719C40.4991 33.2248 40.6528 33.4544 40.8467 33.6478C41.0405 33.841 41.2707 33.9941 41.5238 34.0982L45.3699 35.691C45.6224 35.7968 45.8932 35.8517 46.167 35.8523C46.4407 35.853 46.7118 35.7995 46.9648 35.695C47.2177 35.5904 47.4474 35.4368 47.6407 35.243C47.8341 35.0493 47.9872 34.8192 48.0912 34.5661C48.1971 34.3133 48.252 34.0422 48.2527 33.7682C48.2534 33.4942 48.1999 33.2228 48.0955 32.9696C47.9909 32.7164 47.8373 32.4862 47.6435 32.2926C47.4498 32.0989 47.2196 31.9454 46.9663 31.841L43.1166 30.2481ZM36.7813 36.7839C36.5878 36.9769 36.4343 37.2063 36.3295 37.4587C36.2247 37.7113 36.1709 37.9819 36.1709 38.2553C36.1709 38.5287 36.2247 38.7993 36.3295 39.0518C36.4343 39.3044 36.5878 39.5336 36.7813 39.7267L39.7275 42.6731C40.5454 43.491 41.8559 43.491 42.6738 42.6731C42.8682 42.4802 43.0226 42.2508 43.1279 41.998C43.2332 41.745 43.2875 41.4738 43.2875 41.1999C43.2875 40.9261 43.2332 40.6549 43.1279 40.4019C43.0226 40.1491 42.8682 39.9197 42.6738 39.7267L39.7275 36.7803C39.5347 36.5858 39.3052 36.4314 39.0523 36.3261C38.7995 36.2208 38.5284 36.1665 38.2544 36.1665C37.9805 36.1665 37.7093 36.2208 37.4565 36.3261C37.2036 36.4314 36.9742 36.5858 36.7813 36.7803M31.3746 40.3946C31.1213 40.4986 30.8913 40.6517 30.6976 40.845C30.5038 41.0384 30.3503 41.2682 30.2457 41.5211C30.1412 41.7741 30.0877 42.0453 30.0883 42.319C30.0889 42.5927 30.1438 42.8635 30.2496 43.116L31.8423 46.9661C31.9472 47.2187 32.1008 47.4485 32.2943 47.642C32.4879 47.8353 32.7177 47.9888 32.9706 48.0934C33.2234 48.1981 33.4944 48.2518 33.768 48.2518C34.0417 48.2517 34.3127 48.1976 34.5654 48.0928C34.8181 47.988 35.0478 47.8344 35.2413 47.6408C35.4346 47.4472 35.5881 47.2174 35.6927 46.9646C35.7973 46.7117 35.8511 46.4407 35.8511 46.167C35.8509 45.8934 35.7969 45.6224 35.6921 45.3696L34.0958 41.5232C33.9916 41.2699 33.8386 41.0398 33.6454 40.8459C33.4521 40.6521 33.2224 40.4983 32.9697 40.3935C32.7168 40.2886 32.4457 40.2347 32.172 40.2349C31.8982 40.2351 31.6272 40.2894 31.3746 40.3946Z" fill="#CAD1D8"/>
<path d="M22.9145 43.7482V47.9161C22.9145 48.4688 23.134 48.9989 23.5248 49.3896C23.9155 49.7805 24.4456 50 24.9982 50C25.5509 50 26.0809 49.7805 26.4717 49.3896C26.8625 48.9989 27.0821 48.4688 27.0821 47.9161V43.7482C27.0825 43.4746 27.0289 43.2037 26.9245 42.9509C26.82 42.6981 26.6667 42.4683 26.4733 42.2749C26.2798 42.0814 26.0501 41.9281 25.7974 41.8235C25.5446 41.7191 25.2736 41.6656 25 41.6661C24.7262 41.6651 24.4548 41.7183 24.2016 41.8225C23.9485 41.9269 23.7183 42.0801 23.5245 42.2736C23.3307 42.4671 23.177 42.6969 23.0723 42.9501C22.9676 43.2031 22.914 43.4743 22.9145 43.7482ZM15.8971 41.5232L14.3043 45.3733C14.1998 45.6259 14.1461 45.8969 14.1462 46.1705C14.1463 46.4441 14.2002 46.715 14.305 46.9677C14.4098 47.2203 14.5634 47.4499 14.7569 47.6433C14.9503 47.8367 15.18 47.9901 15.4328 48.0946C15.6856 48.1992 15.9566 48.253 16.2301 48.2529C16.5036 48.2528 16.7744 48.1987 17.0272 48.0939C17.2799 47.9891 17.5095 47.8357 17.7028 47.6421C17.8962 47.4486 18.0495 47.2189 18.1541 46.9661L19.7503 43.116C19.8553 42.8633 19.9092 42.5923 19.9093 42.3186C19.9094 42.0449 19.8556 41.7739 19.751 41.5211C19.6464 41.2682 19.493 41.0384 19.2995 40.8448C19.1062 40.6512 18.8765 40.4977 18.6237 40.3928C18.3709 40.288 18.0999 40.2341 17.8264 40.2339C17.5527 40.2338 17.2817 40.2877 17.0288 40.3922C16.7759 40.4969 16.5462 40.6503 16.3526 40.8438C16.1591 41.0371 16.0055 41.2669 15.9007 41.5197M10.2653 36.7839L7.31912 39.7304C7.12467 39.9232 6.97031 40.1527 6.86498 40.4056C6.75965 40.6584 6.70542 40.9296 6.70542 41.2035C6.70542 41.4775 6.75965 41.7487 6.86498 42.0015C6.97031 42.2544 7.12467 42.4839 7.31912 42.6768C7.51225 42.8709 7.7418 43.0248 7.9946 43.1298C8.24738 43.235 8.51844 43.289 8.79225 43.289C9.06595 43.289 9.33702 43.235 9.58991 43.1298C9.84269 43.0248 10.0723 42.8709 10.2653 42.6768L13.2116 39.7304C13.406 39.5375 13.5604 39.308 13.6657 39.0551C13.771 38.8023 13.8253 38.5311 13.8253 38.2571C13.8253 37.9832 13.771 37.712 13.6657 37.4592C13.5604 37.2063 13.406 36.9768 13.2116 36.7839C13.0185 36.5898 12.7889 36.4359 12.5361 36.3309C12.2833 36.2257 12.0123 36.1717 11.7384 36.1717C11.4646 36.1717 11.1937 36.2257 10.9408 36.3309C10.688 36.4359 10.4584 36.5898 10.2653 36.7839ZM6.87273 30.2518L3.02657 31.8447C2.51606 32.0559 2.11037 32.4613 1.89874 32.9717C1.6871 33.482 1.68686 34.0555 1.89807 34.5661C2.10929 35.0766 2.51465 35.4823 3.02498 35.6939C3.53531 35.9056 4.10881 35.9058 4.61931 35.6946L8.47262 34.1017C8.72552 33.9974 8.95521 33.844 9.14869 33.6506C9.34216 33.4571 9.49563 33.2274 9.60008 32.9746C9.70465 32.7218 9.75813 32.4509 9.75779 32.1773C9.75733 31.9037 9.70282 31.6328 9.59757 31.3803C9.49381 31.1269 9.34102 30.8963 9.14777 30.7023C8.95464 30.5081 8.72494 30.3542 8.47193 30.2493C8.21892 30.1443 7.94774 30.0905 7.67387 30.091C7.40001 30.0914 7.12536 30.1461 6.87273 30.2518ZM2.08377 22.9161C1.53113 22.9161 1.00111 23.1357 0.610323 23.5264C0.219539 23.9173 0 24.4473 0 25C0 25.5527 0.219539 26.0827 0.610323 26.4736C1.00111 26.8643 1.53113 27.0839 2.08377 27.0839H6.25135C6.80399 27.0839 7.33401 26.8643 7.7248 26.4736C8.11562 26.0827 8.33514 25.5527 8.33514 25C8.33514 24.4473 8.11562 23.9173 7.7248 23.5264C7.33401 23.1357 6.80399 22.9161 6.25135 22.9161H2.08377ZM4.62289 14.3018C4.37011 14.1974 4.09926 14.1439 3.82579 14.1442C3.55232 14.1446 3.2816 14.1988 3.02907 14.3037C2.77655 14.4087 2.54717 14.5623 2.35403 14.756C2.16089 14.9496 2.00778 15.1793 1.90343 15.4321C1.79909 15.6849 1.74555 15.9558 1.74588 16.2293C1.74621 16.5028 1.8004 16.7735 1.90535 17.0261C2.01031 17.2786 2.16397 17.508 2.35758 17.7012C2.55118 17.8943 2.78094 18.0474 3.03371 18.1518L6.87987 19.7482C7.13258 19.8534 7.40356 19.9077 7.67729 19.9079C7.95106 19.9081 8.22212 19.8542 8.47491 19.7494C8.7278 19.6445 8.9575 19.4907 9.15074 19.2968C9.34399 19.103 9.497 18.8728 9.60111 18.6197C9.70693 18.3672 9.76179 18.0964 9.76236 17.8226C9.76304 17.5489 9.70956 17.2777 9.605 17.0248C9.50043 16.7718 9.34696 16.5421 9.15314 16.3487C8.95944 16.1553 8.7294 16.0023 8.47616 15.8982L4.62289 14.3018ZM7.3227 7.31963C7.1278 7.5123 6.97307 7.7417 6.86747 7.99464C6.76187 8.24744 6.70749 8.51875 6.70749 8.79281C6.70749 9.06687 6.76187 9.33818 6.86747 9.5911C6.97307 9.84401 7.1278 10.0734 7.3227 10.2661L10.269 13.2089C10.4619 13.4034 10.6913 13.5577 10.9441 13.6631C11.197 13.7685 11.4682 13.8226 11.742 13.8226C12.0159 13.8226 12.2871 13.7685 12.54 13.6631C12.7928 13.5577 13.0222 13.4034 13.2151 13.2089C13.4091 13.0161 13.563 12.7869 13.668 12.5343C13.7729 12.2817 13.8271 12.011 13.8271 11.7375C13.8271 11.464 13.7729 11.1933 13.668 10.9407C13.563 10.6881 13.4091 10.4589 13.2151 10.2661L10.269 7.31963C10.0763 7.12473 9.84692 6.96999 9.59403 6.86438C9.34113 6.75877 9.06983 6.70439 8.7958 6.70439C8.52176 6.70439 8.25046 6.75877 7.99757 6.86438C7.74474 6.96999 7.51534 7.12473 7.3227 7.31963ZM15.4293 1.90178C15.1761 2.00586 14.946 2.15894 14.7522 2.35222C14.5583 2.54549 14.4045 2.77514 14.2996 3.02801C14.1947 3.28088 14.1409 3.55198 14.1411 3.82573C14.1413 4.09947 14.1955 4.37049 14.3008 4.62321L15.8935 8.47315C15.9976 8.72641 16.1506 8.95647 16.344 9.15018C16.5373 9.34401 16.767 9.49761 17.02 9.60218C17.2729 9.70675 17.5441 9.76024 17.8178 9.75955C18.0915 9.75887 18.3623 9.70401 18.6148 9.59818C19.6861 9.15887 20.1861 7.94824 19.7468 6.87678L18.1505 3.03035C18.0465 2.77717 17.8933 2.54703 17.7001 2.35315C17.5068 2.15929 17.2773 2.00551 17.0244 1.90064C16.7715 1.79578 16.5004 1.7419 16.2267 1.74209C15.953 1.74229 15.6819 1.79656 15.4293 1.90178ZM22.9109 2.08035V6.2482C22.9109 6.8009 23.1305 7.33096 23.5212 7.72177C23.912 8.11258 24.442 8.33212 24.9947 8.33212C25.5473 8.33212 26.0773 8.11258 26.4682 7.72177C26.8589 7.33096 27.0784 6.8009 27.0784 6.2482V2.08392C27.0784 1.53123 26.8589 1.00118 26.4682 0.610366C26.0773 0.219554 25.5473 0 24.9947 0C24.442 0 23.912 0.219554 23.5212 0.610366C23.1305 1.00118 22.9109 1.53123 22.9109 2.08392M31.8389 3.03035L30.2496 6.87678C30.1433 7.12917 30.0881 7.40011 30.0872 7.67396C30.0863 7.94778 30.1397 8.21909 30.2444 8.47224C30.3489 8.72527 30.5027 8.9551 30.6967 9.14835C30.8907 9.34172 31.1211 9.49452 31.3746 9.59818C32.4459 10.041 33.653 9.54104 34.0959 8.47315L35.6921 4.62321C35.7968 4.37041 35.8505 4.0995 35.8504 3.82592C35.8503 3.55234 35.7963 3.28147 35.6915 3.02877C35.5867 2.77606 35.4331 2.54646 35.2397 2.3531C35.0461 2.15973 34.8164 2.00637 34.5636 1.90178C34.3108 1.79719 34.04 1.74342 33.7664 1.74353C33.4928 1.74365 33.222 1.79765 32.9693 1.90245C32.7166 2.00723 32.4871 2.16079 32.2937 2.35431C32.1003 2.54784 31.947 2.77755 31.8424 3.03035M39.7276 7.31963L36.7814 10.2661C36.5878 10.4591 36.4343 10.6885 36.3296 10.9409C36.2249 11.1935 36.1709 11.4641 36.1709 11.7375C36.1709 12.0109 36.2249 12.2815 36.3296 12.5341C36.4343 12.7865 36.5878 13.0159 36.7814 13.2089C36.9739 13.4038 37.2034 13.5585 37.4563 13.6642C37.7091 13.7698 37.9804 13.8241 38.2544 13.8241C38.5285 13.8241 38.7998 13.7698 39.0527 13.6642C39.3056 13.5585 39.5349 13.4038 39.7276 13.2089L42.6738 10.2661C42.8687 10.0734 43.0235 9.84401 43.1291 9.5911C43.2346 9.33818 43.289 9.06687 43.289 8.79281C43.289 8.51875 43.2346 8.24744 43.1291 7.99464C43.0235 7.7417 42.8687 7.5123 42.6738 7.31963C42.4811 7.12473 42.2517 6.96999 41.9988 6.86438C41.7461 6.75877 41.4748 6.70439 41.2007 6.70439C40.9267 6.70439 40.6554 6.75877 40.4025 6.86438C40.1496 6.96999 39.9202 7.12473 39.7276 7.31963ZM45.37 14.3018L41.5239 15.8982C41.2704 16.002 41.0399 16.1548 40.8458 16.348C40.6517 16.5412 40.4978 16.7709 40.3929 17.0239C40.288 17.2768 40.2342 17.5481 40.2346 17.822C40.2351 18.0959 40.2897 18.367 40.3954 18.6197C40.8382 19.6874 42.0488 20.1874 43.1166 19.7482L46.9664 18.1518C47.2192 18.0473 47.449 17.8941 47.6425 17.7006C47.8359 17.5072 47.9893 17.2775 48.0938 17.0247C48.1983 16.7718 48.2519 16.5008 48.2514 16.2272C48.251 15.9536 48.1966 15.6829 48.0912 15.4304C47.9872 15.1776 47.8342 14.9479 47.6412 14.7543C47.4483 14.5607 47.2189 14.4071 46.9665 14.3023C46.7141 14.1975 46.4434 14.1434 46.1701 14.1433C45.8967 14.1433 45.6226 14.1972 45.37 14.3018Z" fill="#235DFF"/>
</svg>
