<svg width="25" height="25" viewBox="0 0 25 25" fill="none" xmlns="http://www.w3.org/2000/svg">
<path d="M9.69995 22.3333H15.7C20.7 22.3333 22.7 20.3333 22.7 15.3333V9.33331C22.7 4.33331 20.7 2.33331 15.7 2.33331H9.69995C4.69995 2.33331 2.69995 4.33331 2.69995 9.33331V15.3333C2.69995 20.3333 4.69995 22.3333 9.69995 22.3333Z" stroke="#21283C" stroke-width="1.5" stroke-linecap="round" stroke-linejoin="round"/>
<path d="M13.3 18.8333H17.1C18.6 18.8333 19.2 18.2333 19.2 16.7333V14.9333C19.2 13.4333 18.6 12.8333 17.1 12.8333H13.3C11.8 12.8333 11.2 13.4333 11.2 14.9333V16.7333C11.2 18.2333 11.8 18.8333 13.3 18.8333Z" stroke="#21283C" stroke-width="1.5" stroke-linecap="round" stroke-linejoin="round"/>
</svg>
