<svg width="32" height="32" viewBox="0 0 32 32" fill="none" xmlns="http://www.w3.org/2000/svg">
<path d="M4.22656 9.91992L15.9999 16.7332L27.6932 9.95988" stroke="#5D6E7E" stroke-width="1.5" stroke-linecap="round" stroke-linejoin="round"/>
<path d="M16 28.8132V16.7198" stroke="#5D6E7E" stroke-width="1.5" stroke-linecap="round" stroke-linejoin="round"/>
<path d="M13.2398 3.30663L6.11983 7.26667C4.5065 8.16 3.18652 10.4 3.18652 12.24V19.7733C3.18652 21.6133 4.5065 23.8533 6.11983 24.7466L13.2398 28.7067C14.7598 29.5467 17.2532 29.5467 18.7732 28.7067L25.8932 24.7466C27.5065 23.8533 28.8265 21.6133 28.8265 19.7733V12.24C28.8265 10.4 27.5065 8.16 25.8932 7.26667L18.7732 3.30663C17.2398 2.45329 14.7598 2.45329 13.2398 3.30663Z" stroke="#5D6E7E" stroke-width="1.5" stroke-linecap="round" stroke-linejoin="round"/>
<path d="M22.667 17.6534V12.7734L10.0137 5.46667" stroke="#5D6E7E" stroke-width="1.5" stroke-linecap="round" stroke-linejoin="round"/>
</svg>
