<svg width="25" height="24" viewBox="0 0 25 24" fill="none" xmlns="http://www.w3.org/2000/svg">
<g clip-path="url(#clip0_215_699)">
<path d="M24.5 5.30848C23.5972 5.70224 22.6424 5.96392 21.665 6.08548C22.695 5.47443 23.4651 4.50683 23.8295 3.36598C22.865 3.93799 21.8098 4.3408 20.7095 4.55698C20.0349 3.83665 19.1592 3.33586 18.1962 3.11968C17.2333 2.90349 16.2276 2.9819 15.3098 3.34472C14.392 3.70754 13.6045 4.338 13.0496 5.15419C12.4948 5.97038 12.1982 6.93456 12.1985 7.92148C12.1985 8.31148 12.2315 8.68648 12.3125 9.04348C10.3551 8.94752 8.44004 8.43951 6.69245 7.55266C4.94487 6.66582 3.40414 5.42011 2.171 3.89698C1.53923 4.97977 1.34391 6.26265 1.62482 7.48439C1.90574 8.70613 2.64175 9.77487 3.683 10.473C2.90414 10.4521 2.14171 10.2443 1.46 9.86698V9.92098C1.4613 11.0571 1.854 12.1581 2.57198 13.0387C3.28995 13.9192 4.28937 14.5255 5.402 14.7555C4.98108 14.8664 4.54728 14.9209 4.112 14.9175C3.79938 14.923 3.48708 14.8949 3.1805 14.8335C3.49841 15.81 4.11124 16.664 4.93459 17.2778C5.75795 17.8916 6.75134 18.2351 7.778 18.261C6.03641 19.623 3.88846 20.3619 1.6775 20.3595C1.274 20.3595 0.887 20.3415 0.5 20.292C2.74982 21.7418 5.37151 22.5087 8.048 22.5C17.102 22.5 22.052 15 22.052 8.49898C22.052 8.28148 22.0445 8.07148 22.034 7.86298C23.0044 7.16846 23.8401 6.30281 24.5 5.30848Z" fill="#03A9F4"/>
</g>
<defs>
<clipPath id="clip0_215_699">
<rect width="24" height="24" fill="white" transform="translate(0.5)"/>
</clipPath>
</defs>
</svg>
