<svg width="24" height="25" viewBox="0 0 24 25" fill="none" xmlns="http://www.w3.org/2000/svg">
<path d="M18.1404 21.8849C17.2604 22.1449 16.2204 22.2649 15.0004 22.2649H9.00035C7.78035 22.2649 6.74035 22.1449 5.86035 21.8849C6.08035 19.2849 8.75035 17.2349 12.0004 17.2349C15.2504 17.2349 17.9204 19.2849 18.1404 21.8849Z" stroke="#235DFF" stroke-width="1.5" stroke-linecap="round" stroke-linejoin="round"/>
<path d="M15 2.26489H9C4 2.26489 2 4.26489 2 9.26489V15.2649C2 19.0449 3.14 21.1149 5.86 21.8849C6.08 19.2849 8.75 17.2349 12 17.2349C15.25 17.2349 17.92 19.2849 18.14 21.8849C20.86 21.1149 22 19.0449 22 15.2649V9.26489C22 4.26489 20 2.26489 15 2.26489ZM12 14.4349C10.02 14.4349 8.42 12.8249 8.42 10.8449C8.42 8.86491 10.02 7.26489 12 7.26489C13.98 7.26489 15.58 8.86491 15.58 10.8449C15.58 12.8249 13.98 14.4349 12 14.4349Z" stroke="#235DFF" stroke-width="1.5" stroke-linecap="round" stroke-linejoin="round"/>
<path d="M15.5799 10.8449C15.5799 12.8249 13.9799 14.4349 11.9999 14.4349C10.0199 14.4349 8.41992 12.8249 8.41992 10.8449C8.41992 8.86491 10.0199 7.26489 11.9999 7.26489C13.9799 7.26489 15.5799 8.86491 15.5799 10.8449Z" stroke="#235DFF" stroke-width="1.5" stroke-linecap="round" stroke-linejoin="round"/>
</svg>
