<svg width="32" height="32" viewBox="0 0 32 32" fill="none" xmlns="http://www.w3.org/2000/svg">
<path d="M9.27961 13.1201C7.67961 13.1201 6.39961 14.4001 6.39961 16.0001C6.39961 17.6001 7.67961 18.8801 9.27961 18.8801C10.8796 18.8801 12.1596 17.6001 12.1596 16.0001C12.1596 14.4001 10.8796 13.1201 9.27961 13.1201ZM9.27961 17.6001C8.38361 17.6001 7.67961 16.8961 7.67961 16.0001C7.67961 15.1041 8.38361 14.4001 9.27961 14.4001C10.1756 14.4001 10.8796 15.1041 10.8796 16.0001C10.8796 16.8961 10.1756 17.6001 9.27961 17.6001ZM22.7196 13.1201C21.1196 13.1201 19.8396 14.4001 19.8396 16.0001C19.8396 17.6001 21.1196 18.8801 22.7196 18.8801C24.3196 18.8801 25.5996 17.6001 25.5996 16.0001C25.5996 14.4001 24.3196 13.1201 22.7196 13.1201ZM22.7196 17.6001C21.8236 17.6001 21.1196 16.8961 21.1196 16.0001C21.1196 15.1041 21.8236 14.4001 22.7196 14.4001C23.6156 14.4001 24.3196 15.1041 24.3196 16.0001C24.3196 16.8961 23.6156 17.6001 22.7196 17.6001ZM26.5596 7.68005H5.43961C3.32761 7.68005 1.59961 9.40805 1.59961 11.5201V20.4801C1.59961 22.5921 3.32761 24.3201 5.43961 24.3201H10.0796C11.1996 24.3201 12.2556 23.8401 12.9596 23.0081L14.0796 21.7281C14.5596 21.1841 15.2636 20.8641 15.9996 20.8641C16.7356 20.8641 17.4396 21.1841 17.9196 21.7281L19.0396 23.0081C19.7756 23.8401 20.8316 24.3201 21.9196 24.3201H26.5596C28.6716 24.3201 30.3996 22.5921 30.3996 20.4801V11.5201C30.3996 9.40805 28.6716 7.68005 26.5596 7.68005ZM29.1196 20.4801C29.1196 21.8881 27.9676 23.0401 26.5596 23.0401H21.9196C21.1836 23.0401 20.4796 22.7201 19.9996 22.1761L18.8796 20.8961C18.1436 20.0641 17.0876 19.5841 15.9996 19.5841C14.8796 19.5841 13.8236 20.0641 13.1196 20.8961L11.9996 22.1761C11.5196 22.7201 10.8156 23.0401 10.0796 23.0401H5.43961C4.03161 23.0401 2.87961 21.8881 2.87961 20.4801V11.5201C2.87961 10.1121 4.03161 8.96005 5.43961 8.96005H26.5596C27.9676 8.96005 29.1196 10.1121 29.1196 11.5201V20.4801Z" fill="#5D6E7E" stroke="#5D6E7E" stroke-width="0.5"/>
<path d="M17.1368 4.13102C16.5156 3.51031 15.5091 3.51019 14.8884 4.1309C14.7947 4.22449 14.6678 4.27706 14.5353 4.27706C14.4029 4.27706 14.2759 4.22449 14.1823 4.1309C14.0887 4.03719 14.0361 3.91018 14.0361 3.77776C14.0361 3.64533 14.0887 3.51832 14.1823 3.42462C15.1928 2.41404 16.8314 2.41392 17.8427 3.4245C17.9364 3.51814 17.989 3.64514 17.9891 3.77759C17.9891 3.91003 17.9366 4.03707 17.843 4.13078C17.7493 4.22437 17.6223 4.27697 17.4899 4.27701C17.3575 4.27706 17.2305 4.22455 17.1368 4.13102Z" fill="#5D6E7E"/>
<path d="M16.5501 5.068C16.6927 5.21056 16.7728 5.4039 16.7729 5.60553C16.7728 5.80719 16.6927 6.00056 16.5501 6.14315C16.4075 6.28574 16.2141 6.36589 16.0125 6.36598C15.8109 6.36585 15.6175 6.28569 15.475 6.1431C15.3324 6.00052 15.2523 5.80717 15.2522 5.60553C15.2523 5.40391 15.3324 5.21057 15.475 5.068C15.6175 4.92543 15.8109 4.8453 16.0125 4.8452C16.2141 4.8453 16.4075 4.92543 16.5501 5.068Z" fill="#5D6E7E"/>
<path d="M17.1368 4.13102C16.5156 3.51031 15.5091 3.51019 14.8884 4.1309C14.7947 4.22449 14.6678 4.27706 14.5353 4.27706C14.4029 4.27706 14.2759 4.22449 14.1823 4.1309C14.0887 4.03719 14.0361 3.91018 14.0361 3.77776C14.0361 3.64533 14.0887 3.51832 14.1823 3.42462C15.1928 2.41404 16.8314 2.41392 17.8427 3.4245C17.9364 3.51814 17.989 3.64514 17.9891 3.77759C17.9891 3.91003 17.9366 4.03707 17.843 4.13078C17.7493 4.22437 17.6223 4.27697 17.4899 4.27701C17.3575 4.27706 17.2305 4.22455 17.1368 4.13102Z" stroke="#5D6E7E" stroke-width="0.5"/>
<path d="M16.5501 5.068C16.6927 5.21056 16.7728 5.4039 16.7729 5.60553C16.7728 5.80719 16.6927 6.00056 16.5501 6.14315C16.4075 6.28574 16.2141 6.36589 16.0125 6.36598C15.8109 6.36585 15.6175 6.28569 15.475 6.1431C15.3324 6.00052 15.2523 5.80717 15.2522 5.60553C15.2523 5.40391 15.3324 5.21057 15.475 5.068C15.6175 4.92543 15.8109 4.8453 16.0125 4.8452C16.2141 4.8453 16.4075 4.92543 16.5501 5.068Z" stroke="#5D6E7E" stroke-width="0.5"/>
</svg>
