<svg width="417" height="30" viewBox="0 0 417 30" fill="none" xmlns="http://www.w3.org/2000/svg">
<rect width="3.97619" height="30" fill="#235DFF"/>
<rect x="4.97607" y="7" width="3.97619" height="16" fill="#235DFF"/>
<rect x="9.95227" y="10" width="3.97619" height="10" fill="#235DFF"/>
<rect x="14.9285" width="3.97619" height="30" fill="#235DFF"/>
<rect x="19.9047" y="7" width="3.97619" height="16" fill="#235DFF"/>
<rect x="24.8809" y="10" width="3.97619" height="10" fill="#235DFF"/>
<rect x="29.8571" y="7" width="3.97619" height="16" fill="#235DFF"/>
<rect x="34.8333" y="4" width="3.97619" height="22" fill="#235DFF"/>
<rect x="39.8094" y="3" width="3.97619" height="24" fill="#235DFF"/>
<rect x="44.7856" y="4" width="3.97619" height="22" fill="#235DFF"/>
<rect x="49.7618" y="7" width="3.97619" height="16" fill="#235DFF"/>
<rect x="54.738" y="10" width="3.97619" height="10" fill="#235DFF"/>
<rect x="59.7142" width="3.97619" height="30" fill="#235DFF"/>
<rect x="64.6904" y="7" width="3.97619" height="16" fill="#235DFF"/>
<rect x="69.6666" y="10" width="3.97619" height="10" fill="#235DFF"/>
<rect x="74.6428" width="3.97619" height="30" fill="#235DFF"/>
<rect x="79.619" y="7" width="3.97619" height="16" fill="#235DFF"/>
<rect x="84.5952" y="10" width="3.97619" height="10" fill="#235DFF"/>
<rect x="89.5713" y="7" width="3.97619" height="16" fill="#235DFF"/>
<rect x="94.5475" y="4" width="3.97619" height="22" fill="#235DFF"/>
<rect x="99.5237" y="3" width="3.97619" height="24" fill="#235DFF"/>
<rect x="104.5" y="4" width="3.97619" height="22" fill="#235DFF"/>
<rect x="109.476" y="7" width="3.97619" height="16" fill="#235DFF"/>
<rect x="114.452" y="10" width="3.97619" height="10" fill="#235DFF"/>
<rect x="119.428" width="3.97619" height="30" fill="#235DFF"/>
<rect x="124.405" y="7" width="3.97619" height="16" fill="#235DFF"/>
<rect x="129.381" y="10" width="3.97619" height="10" fill="#235DFF"/>
<rect x="134.357" width="3.97619" height="30" fill="#235DFF"/>
<rect x="139.333" y="7" width="3.97619" height="16" fill="#235DFF"/>
<rect x="144.309" y="10" width="3.97619" height="10" fill="#235DFF"/>
<rect x="149.286" y="7" width="3.97619" height="16" fill="#235DFF"/>
<rect x="154.262" y="4" width="3.97619" height="22" fill="#235DFF"/>
<rect x="159.238" y="3" width="3.97619" height="24" fill="#235DFF"/>
<rect x="164.214" y="4" width="3.97619" height="22" fill="#235DFF"/>
<rect x="169.19" y="7" width="3.97619" height="16" fill="#235DFF"/>
<rect x="174.167" y="10" width="3.97619" height="10" fill="#235DFF"/>
<rect x="179.143" width="3.97619" height="30" fill="#235DFF"/>
<rect x="184.119" y="7" width="3.97619" height="16" fill="#235DFF"/>
<rect x="189.095" y="10" width="3.97619" height="10" fill="#235DFF"/>
<rect x="194.071" width="3.97619" height="30" fill="#235DFF"/>
<rect x="199.048" y="7" width="3.97619" height="16" fill="#235DFF"/>
<rect x="204.024" y="10" width="3.97619" height="10" fill="#235DFF"/>
<rect x="209" y="7" width="3.97619" height="16" fill="#235DFF"/>
<rect x="213.976" y="4" width="3.97619" height="22" fill="#235DFF"/>
<rect x="218.952" y="3" width="3.97619" height="24" fill="#235DFF"/>
<rect x="223.929" y="4" width="3.97619" height="22" fill="#235DFF"/>
<rect x="228.905" y="7" width="3.97619" height="16" fill="#235DFF"/>
<rect x="233.881" y="10" width="3.97619" height="10" fill="#235DFF"/>
<rect x="238.857" width="3.97619" height="30" fill="#235DFF"/>
<rect x="243.833" y="7" width="3.97619" height="16" fill="#235DFF"/>
<rect x="248.81" y="10" width="3.97619" height="10" fill="#235DFF"/>
<rect x="253.786" width="3.97619" height="30" fill="#235DFF"/>
<rect x="258.762" y="7" width="3.97619" height="16" fill="#235DFF"/>
<rect x="263.738" y="10" width="3.97619" height="10" fill="#235DFF"/>
<rect x="268.714" y="7" width="3.97619" height="16" fill="#235DFF"/>
<rect x="273.691" y="4" width="3.97619" height="22" fill="#235DFF"/>
<rect x="278.667" y="3" width="3.97619" height="24" fill="#235DFF"/>
<rect x="283.643" y="4" width="3.97619" height="22" fill="#235DFF"/>
<rect x="288.619" y="7" width="3.97619" height="16" fill="#235DFF"/>
<rect x="293.595" y="10" width="3.97619" height="10" fill="#235DFF"/>
<rect x="298.572" width="3.97619" height="30" fill="#235DFF"/>
<rect x="303.548" y="7" width="3.97619" height="16" fill="#235DFF"/>
<rect x="308.524" y="10" width="3.97619" height="10" fill="#235DFF"/>
<rect x="313.5" width="3.97619" height="30" fill="#235DFF"/>
<rect x="318.476" y="7" width="3.97619" height="16" fill="#235DFF"/>
<rect x="323.453" y="10" width="3.97619" height="10" fill="#235DFF"/>
<rect x="328.429" y="7" width="3.97619" height="16" fill="#235DFF"/>
<rect x="333.405" y="4" width="3.97619" height="22" fill="#235DFF"/>
<rect x="338.381" y="3" width="3.97619" height="24" fill="#235DFF"/>
<rect x="343.357" y="4" width="3.97619" height="22" fill="#235DFF"/>
<rect x="348.333" y="7" width="3.97619" height="16" fill="#235DFF"/>
<rect x="353.31" y="10" width="3.97619" height="10" fill="#235DFF"/>
<rect x="358.286" width="3.97619" height="30" fill="#235DFF"/>
<rect x="363.262" y="7" width="3.97619" height="16" fill="#235DFF"/>
<rect x="368.238" y="10" width="3.97619" height="10" fill="#235DFF"/>
<rect x="373.214" width="3.97619" height="30" fill="#235DFF"/>
<rect x="378.191" y="7" width="3.97619" height="16" fill="#235DFF"/>
<rect x="383.167" y="10" width="3.97619" height="10" fill="#235DFF"/>
<rect x="388.143" y="7" width="3.97619" height="16" fill="#235DFF"/>
<rect x="393.119" y="4" width="3.97619" height="22" fill="#235DFF"/>
<rect x="398.095" y="3" width="3.97619" height="24" fill="#235DFF"/>
<rect x="403.072" y="4" width="3.97619" height="22" fill="#235DFF"/>
<rect x="408.048" y="7" width="3.97619" height="16" fill="#235DFF"/>
<rect x="413.024" y="10" width="3.97619" height="10" fill="#235DFF"/>
</svg>
